# xmcd
#
# Track frame offsets:
#	150
#	17031
#	33164
#	49370
#	62953
#	81409
#	98893
#	114799
#	131231
#	148112
#	165143
#	180899
#	203556
#	220065
#	242722
#
# Disc length: 3516 seconds
# Revision: 0
# Processed by: cddbd v1.5.2PL0 Copyright (c) Steve Scherf et al.
# Submitted via: dBpowerAMP V12.0
#
DISCID=c70dba0f
DTITLE=Various Artist - The Big Bang
DYEAR=2006
DGENRE=Hip-Hop
TTITLE0=Busta Rhymes (Feat. Q-Tip and Marsha Ambrosius)(By Dr. Dre and Mark Batson) - Get You Some
TTITLE1=Busta Rhymes (By Swizz Beatz) - Touch It
TTITLE2=Busta Rhymes (Feat. Missy Elliott)(By Dr. Dre) - How We Do It Over Here
TTITLE3=Busta Rhymes (Feat. Swizz Beatz)(By DJ Scratch) - New York Shit
TTITLE4=Busta Rhymes (Feat. Stevie Wonder)(By Sha Money XL and Black Jeruz) - Been Through The Storm
TTITLE5=Busta Rhymes (Feat. Rick James)(By DJ Green Lantern and Dr. Dre) - In The Ghetto
TTITLE6=Busta Rhymes (Feat. Marsha Ambrosius)(By Dr. Dre and Mark Batson) - Cocaina
TTITLE7=Busta Rhymes (Feat. Q-Tip and Chauncey Black)(By J Dilla) - You Can't Hold The Torch
TTITLE8=Busta Rhymes (Feat. Raekwon)(By Erick Sermon and Dr. Dre) - Goldmine
TTITLE9=Busta Rhymes (Feat. Kelis and Will.I.Am)(By Will.I.Am) - I Love My Bitch
TTITLE10=Busta Rhymes (Feat. Nas)(By Dr. Dre) - Don't Get Carried Away
TTITLE11=Busta Rhymes (Feat. and By Mr. Porter) - They're Out To Get Me
TTITLE12=Busta Rhymes (By Timbaland and Nisan Stewart) - Get Down
TTITLE13=Busta Rhymes (Feat. Latoya Jackson)(By Jellyroll) - I'll Do It All
TTITLE14=Busta Rhymes (By Dr. Dre) - Legend Of The Fall Offs
EXTD=
EXTT0=
EXTT1=
EXTT2=
EXTT3=
EXTT4=
EXTT5=
EXTT6=
EXTT7=
EXTT8=
EXTT9=
EXTT10=
EXTT11=
EXTT12=
EXTT13=
EXTT14=
PLAYORDER=
